<?xml version="1.0" encoding="UTF-8" standalone="no"?><!DOCTYPE svg PUBLIC "-//W3C//DTD SVG 1.1//EN" "http://www.w3.org/Graphics/SVG/1.1/DTD/svg11.dtd"><svg width="100%" height="100%" viewBox="0 0 147 147" version="1.1" xmlns="http://www.w3.org/2000/svg" xmlns:xlink="http://www.w3.org/1999/xlink" xml:space="preserve" style="fill-rule:evenodd;clip-rule:evenodd;stroke-linecap:round;stroke-linejoin:round;stroke-miterlimit:1.41421;"><g><path d="M73.5,0c40.565,-0.103 73.5,32.748 73.5,73.314c0,40.564 -32.935,73.582 -73.5,73.686c-40.566,0.101 -73.5,-32.748 -73.5,-73.314c0,-40.566 32.934,-73.583 73.5,-73.686Z" style="fill:#256d93;"/><clipPath id="_clip1"><path d="M73.5,0c40.565,-0.103 73.5,32.748 73.5,73.314c0,40.564 -32.935,73.582 -73.5,73.686c-40.566,0.101 -73.5,-32.748 -73.5,-73.314c0,-40.566 32.934,-73.583 73.5,-73.686Z"/></clipPath><g clip-path="url(#_clip1)"><path d="M33.916,101.689c7.964,-0.02 14.43,6.429 14.43,14.393c0,7.964 -6.466,14.447 -14.43,14.466c-7.964,0.021 -14.43,-6.429 -14.43,-14.392c0,-7.965 6.466,-14.447 14.43,-14.467l0,0Z" style="fill:#fff;fill-opacity:0.0784314;"/></g><clipPath id="_clip2"><path d="M73.5,0c40.565,-0.103 73.5,32.748 73.5,73.314c0,40.564 -32.935,73.582 -73.5,73.686c-40.566,0.101 -73.5,-32.748 -73.5,-73.314c0,-40.566 32.934,-73.583 73.5,-73.686Z"/></clipPath><g clip-path="url(#_clip2)"><path d="M132.831,-87.436c58.152,-0.147 105.365,46.945 105.365,105.099c0,58.151 -47.213,105.484 -105.365,105.631c-58.153,0.148 -105.365,-46.945 -105.365,-105.098c0,-58.151 47.212,-105.484 105.365,-105.632l0,0Z" style="fill:#fff;fill-opacity:0.109804;"/></g><clipPath id="_clip3"><path d="M73.5,0c40.565,-0.103 73.5,32.748 73.5,73.314c0,40.564 -32.935,73.582 -73.5,73.686c-40.566,0.101 -73.5,-32.748 -73.5,-73.314c0,-40.566 32.934,-73.583 73.5,-73.686Z"/></clipPath><g clip-path="url(#_clip3)"><path d="M97.57,150.977c6.924,-30.101 -12.539,-42.722 -4.872,-52.813c7,-9.214 34.362,-3.486 45.857,2.128c6.039,2.95 9.449,6.921 11.21,11.386c2.781,7.047 0.412,12.54 2.626,13.937c2.862,1.804 11.509,2.126 15.755,-5.642c2.554,-4.672 -11.123,-25.277 -12.463,-32.86c-0.776,-4.388 0.98,-11.541 4.418,-12.642c3.633,-1.165 11.865,-6.378 10.237,-11.345c-0.86,-2.627 -8.763,-8.378 -14.441,-9.777c-31.576,-7.78 -48.882,13.945 -64.193,2.976c-37.875,-27.131 -10.871,-57.529 -34.377,-58.775c-8.753,-0.464 -17.167,31.287 -33.348,34.593c-8.82,1.803 -20.826,1.167 -26.548,4.98c-11.754,7.829 -6.438,30.526 12.175,37.024c16.715,5.836 37.074,3.953 49.163,16.011c12.874,12.842 23.559,58.888 28.083,61.04c4.566,2.171 10.102,2.461 10.718,-0.221l0,0Z" style="fill:none;stroke-width:5.81px;stroke:#fff;stroke-opacity:0.356863;"/></g></g></svg>