<?xml version="1.0" encoding="UTF-8" standalone="no"?><!DOCTYPE svg PUBLIC "-//W3C//DTD SVG 1.1//EN" "http://www.w3.org/Graphics/SVG/1.1/DTD/svg11.dtd"><svg width="100%" height="100%" viewBox="0 0 500 300" version="1.1" xmlns="http://www.w3.org/2000/svg" xmlns:xlink="http://www.w3.org/1999/xlink" xml:space="preserve" style="fill-rule:evenodd;clip-rule:evenodd;stroke-linecap:round;stroke-linejoin:round;stroke-miterlimit:1.41421;"><path d="M500,300l-525.387,0l0,-38.017l525.387,-22.195l0,60.212Z" style="fill:#1b92c8;fill-opacity:0.278431;"/><path d="M500,300l-525.387,0l0,-27.726l525.387,-16.188l0,43.914Z" style="fill:#1030a6;fill-opacity:0.278431;"/><path d="M-25.387,300l525.387,0l0,-20.68l-525.387,-12.073l0,32.753Z" style="fill:#193795;fill-opacity:0.278431;"/><g><path d="M182.37,103.608c31.389,-0.08 56.874,25.34 56.874,56.73c0,31.389 -25.485,56.938 -56.874,57.018c-31.39,0.079 -56.874,-25.341 -56.874,-56.73c0,-31.39 25.484,-56.939 56.874,-57.018Z" style="fill:#226d93;"/><clipPath id="_clip1"><path d="M182.37,103.608c31.389,-0.08 56.874,25.34 56.874,56.73c0,31.389 -25.485,56.938 -56.874,57.018c-31.39,0.079 -56.874,-25.341 -56.874,-56.73c0,-31.39 25.484,-56.939 56.874,-57.018Z"/></clipPath><g clip-path="url(#_clip1)"><path d="M151.74,182.294c6.163,-0.015 11.166,4.975 11.166,11.138c0,6.163 -5.003,11.179 -11.166,11.194c-6.163,0.016 -11.166,-4.975 -11.166,-11.137c0,-6.163 5.003,-11.179 11.166,-11.195Z" style="fill:#fff;fill-opacity:0.0784314;"/></g><clipPath id="_clip2"><path d="M182.37,103.608c31.389,-0.08 56.874,25.34 56.874,56.73c0,31.389 -25.485,56.938 -56.874,57.018c-31.39,0.079 -56.874,-25.341 -56.874,-56.73c0,-31.39 25.484,-56.939 56.874,-57.018Z"/></clipPath><g clip-path="url(#_clip2)"><path d="M228.28,35.95c44.999,-0.114 81.532,36.326 81.532,81.325c0,44.998 -36.533,81.624 -81.532,81.738c-44.998,0.114 -81.531,-36.327 -81.531,-81.325c0,-44.999 36.533,-81.624 81.531,-81.738Z" style="fill:#fff;fill-opacity:0.113725;"/></g><clipPath id="_clip3"><path d="M182.37,103.608c31.389,-0.08 56.874,25.34 56.874,56.73c0,31.389 -25.485,56.938 -56.874,57.018c-31.39,0.079 -56.874,-25.341 -56.874,-56.73c0,-31.39 25.484,-56.939 56.874,-57.018Z"/></clipPath><g clip-path="url(#_clip3)"><path d="M200.996,220.434c5.357,-23.292 -9.703,-33.059 -3.771,-40.867c5.417,-7.13 26.59,-2.697 35.484,1.646c4.674,2.282 7.312,5.356 8.675,8.811c2.152,5.453 0.319,9.704 2.032,10.785c2.215,1.396 8.906,1.644 12.191,-4.366c1.976,-3.616 -8.607,-19.559 -9.644,-25.428c-0.6,-3.395 0.759,-8.93 3.419,-9.783c2.81,-0.9 9.181,-4.934 7.922,-8.778c-0.666,-2.032 -6.781,-6.482 -11.175,-7.565c-24.434,-6.02 -37.825,10.791 -49.673,2.303c-29.307,-20.994 -8.412,-44.516 -26.601,-45.48c-6.773,-0.359 -13.284,24.21 -25.804,26.768c-6.825,1.395 -16.115,0.903 -20.544,3.853c-9.094,6.058 -4.981,23.621 9.422,28.649c12.934,4.516 28.688,3.059 38.042,12.39c9.962,9.937 18.23,45.568 21.731,47.232c3.533,1.68 7.817,1.905 8.294,-0.17Z" style="fill:none;stroke-width:4.5px;stroke:#fff;stroke-opacity:0.360784;"/></g><g><text x="276.205px" y="179.437px" style="font-family:'Futura-Medium', 'Futura', sans-serif;font-weight:500;font-size:13.617px;fill:#454545;">P<tspan x="285.604px 297.82px 303.781px 317.448px 323.601px 335.255px 343.299px 349.26px 362.927px 368.889px " y="179.437px 179.437px 179.437px 179.437px 179.437px 179.437px 179.437px 179.437px 179.437px 179.437px ">AIN CLINIC</tspan></text><text x="275.431px" y="146.694px" style="font-family:'Futura-Medium', 'Futura', sans-serif;font-weight:500;font-size:10.555px;fill:#d9ebee;">H<tspan x="287.212px 297.167px 305.795px 317.497px 327.452px 337.805px 348.042px 357.997px 368.35px " y="146.694px 146.694px 146.694px 146.694px 146.694px 146.694px 146.694px 146.694px 146.694px ">ELDERBERG</tspan></text><rect x="276.065" y="157.25" width="104.617" height="1.139" style="fill:#d9ebee;"/></g></g></svg>