<?xml version="1.0" encoding="UTF-8" standalone="no"?><!DOCTYPE svg PUBLIC "-//W3C//DTD SVG 1.1//EN" "http://www.w3.org/Graphics/SVG/1.1/DTD/svg11.dtd"><svg width="100%" height="100%" viewBox="0 0 266 129" version="1.1" xmlns="http://www.w3.org/2000/svg" xmlns:xlink="http://www.w3.org/1999/xlink" xml:space="preserve" style="fill-rule:evenodd;clip-rule:evenodd;stroke-linecap:round;stroke-linejoin:round;stroke-miterlimit:1.41421;"><g><path d="M67.583,5.797c31.389,-0.08 56.874,25.34 56.874,56.73c0,31.389 -25.485,56.938 -56.874,57.018c-31.39,0.079 -56.874,-25.34 -56.874,-56.73c0,-31.39 25.484,-56.939 56.874,-57.018Z" style="fill:#c4d6df;"/><clipPath id="_clip1"><path d="M67.583,5.797c31.389,-0.08 56.874,25.34 56.874,56.73c0,31.389 -25.485,56.938 -56.874,57.018c-31.39,0.079 -56.874,-25.34 -56.874,-56.73c0,-31.39 25.484,-56.939 56.874,-57.018Z"/></clipPath><g clip-path="url(#_clip1)"><path d="M36.953,84.483c6.163,-0.015 11.166,4.975 11.166,11.138c0,6.163 -5.003,11.179 -11.166,11.194c-6.163,0.016 -11.166,-4.975 -11.166,-11.137c0,-6.163 5.003,-11.179 11.166,-11.195Z" style="fill:#fff;fill-opacity:0.0784314;"/></g><clipPath id="_clip2"><path d="M67.583,5.797c31.389,-0.08 56.874,25.34 56.874,56.73c0,31.389 -25.485,56.938 -56.874,57.018c-31.39,0.079 -56.874,-25.34 -56.874,-56.73c0,-31.39 25.484,-56.939 56.874,-57.018Z"/></clipPath><g clip-path="url(#_clip2)"><path d="M113.493,-61.861c44.999,-0.114 81.532,36.326 81.532,81.325c0,44.998 -36.533,81.624 -81.532,81.738c-44.998,0.114 -81.531,-36.327 -81.531,-81.325c0,-44.998 36.533,-81.624 81.531,-81.738Z" style="fill:#fff;fill-opacity:0.113725;"/></g><clipPath id="_clip3"><path d="M67.583,5.797c31.389,-0.08 56.874,25.34 56.874,56.73c0,31.389 -25.485,56.938 -56.874,57.018c-31.39,0.079 -56.874,-25.34 -56.874,-56.73c0,-31.39 25.484,-56.939 56.874,-57.018Z"/></clipPath><g clip-path="url(#_clip3)"><path d="M86.209,122.623c5.357,-23.292 -9.703,-33.059 -3.771,-40.867c5.417,-7.13 26.59,-2.697 35.484,1.646c4.674,2.283 7.312,5.356 8.675,8.811c2.152,5.453 0.319,9.704 2.032,10.785c2.215,1.396 8.906,1.644 12.191,-4.366c1.976,-3.615 -8.607,-19.559 -9.644,-25.427c-0.6,-3.396 0.759,-8.931 3.419,-9.783c2.811,-0.901 9.181,-4.935 7.922,-8.779c-0.666,-2.032 -6.781,-6.482 -11.175,-7.565c-24.434,-6.02 -37.825,10.791 -49.673,2.303c-29.307,-20.994 -8.412,-44.516 -26.601,-45.48c-6.773,-0.359 -13.284,24.21 -25.804,26.768c-6.825,1.395 -16.115,0.903 -20.544,3.853c-9.094,6.059 -4.981,23.621 9.422,28.65c12.934,4.515 28.688,3.059 38.042,12.389c9.962,9.937 18.23,45.568 21.731,47.233c3.533,1.679 7.817,1.904 8.294,-0.171Z" style="fill:none;stroke-width:4.5px;stroke:#fff;stroke-opacity:0.360784;"/></g><g><text x="161.418px" y="81.626px" style="font-family:'Futura-Medium', 'Futura', sans-serif;font-weight:500;font-size:13.617px;fill:#454545;">P<tspan x="170.817px 183.033px 188.994px 202.661px 208.814px 220.468px 228.512px 234.473px 248.14px 254.102px " y="81.626px 81.626px 81.626px 81.626px 81.626px 81.626px 81.626px 81.626px 81.626px 81.626px ">AIN CLINIC</tspan></text><text x="160.644px" y="48.884px" style="font-family:'Futura-Medium', 'Futura', sans-serif;font-weight:500;font-size:10.555px;fill:#d9ebee;">H<tspan x="172.425px 182.38px 191.008px 202.71px 212.665px 223.018px 233.255px 243.21px 253.563px " y="48.884px 48.884px 48.884px 48.884px 48.884px 48.884px 48.884px 48.884px 48.884px ">ELDERBERG</tspan></text><rect x="161.278" y="59.439" width="104.617" height="1.139" style="fill:#d9ebee;"/></g></g></svg>